<svg width="204" height="201" viewBox="0 0 204 201" fill="none" xmlns="http://www.w3.org/2000/svg">
<path d="M192.078 118.102C170.602 162.241 133.26 190.155 88.25 193.518C43.2401 196.88 2.19051 152.659 5.68227 95.124C9.17402 37.5892 67.9982 10.8865 129.096 14.5945C190.193 18.3025 213.555 73.9629 192.078 118.102Z" fill="#E7FBFF"/>
<path d="M106.106 28.9487L124.868 18.5846L166.519 94.15C167.199 95.3833 167.63 96.7385 167.786 98.1383C167.943 99.5381 167.823 100.955 167.432 102.308C167.042 103.662 166.389 104.925 165.511 106.025C164.633 107.126 163.547 108.043 162.315 108.723C161.083 109.404 159.729 109.835 158.331 109.991C156.933 110.148 155.517 110.028 154.166 109.637C152.814 109.246 151.552 108.592 150.453 107.714C149.353 106.835 148.437 105.747 147.758 104.514L106.106 28.9487Z" fill="#FAFEFF"/>
<path d="M106.106 28.9487L124.868 18.5846L166.519 94.15C167.199 95.3833 167.63 96.7385 167.786 98.1383C167.943 99.5381 167.823 100.955 167.432 102.308C167.042 103.662 166.389 104.925 165.511 106.025C164.633 107.126 163.547 108.043 162.315 108.723C161.083 109.404 159.729 109.835 158.331 109.991C156.933 110.148 155.517 110.028 154.166 109.637C152.814 109.246 151.552 108.592 150.453 107.714C149.353 106.835 148.437 105.747 147.758 104.514L106.106 28.9487Z" fill="url(#paint0_linear_0_37)" fill-opacity="0.2"/>
<path d="M106.106 28.9487L124.868 18.5846L166.519 94.15C167.199 95.3833 167.63 96.7385 167.786 98.1383C167.943 99.5381 167.823 100.955 167.432 102.308C167.042 103.662 166.389 104.925 165.511 106.025C164.633 107.126 163.547 108.043 162.315 108.723C161.083 109.404 159.729 109.835 158.331 109.991C156.933 110.148 155.517 110.028 154.166 109.637C152.814 109.246 151.552 108.592 150.453 107.714C149.353 106.835 148.437 105.747 147.758 104.514L106.106 28.9487Z" stroke="#A0C3ED" stroke-width="2" stroke-linejoin="round"/>
<path d="M139.612 52.4151L163.343 95.4815C163.756 96.3033 164.002 97.199 164.066 98.1167C164.131 99.0345 164.013 99.9559 163.719 100.828C163.425 101.699 162.962 102.504 162.355 103.195C161.748 103.886 161.01 104.449 160.184 104.852C158.601 105.816 156.701 106.114 154.899 105.68C153.097 105.246 151.54 104.115 150.569 102.536L123.494 53.4113C127.324 51.3032 135.215 54.836 139.612 52.4151Z" fill="url(#paint1_linear_0_37)"/>
<path d="M125.577 13.5256L101.446 26.8557C100.461 27.3996 100.103 28.6397 100.647 29.6255L100.652 29.6357C101.196 30.6215 102.435 30.9796 103.419 30.4357L127.55 17.1056C128.535 16.5616 128.893 15.3215 128.349 14.3357L128.344 14.3256C127.8 13.3398 126.562 12.9816 125.577 13.5256Z" fill="#A0C3ED" stroke="#A0C3ED" stroke-linejoin="round"/>
<path d="M70.9734 62.6188V94.7274C70.9749 96.5586 70.5926 98.3697 69.8512 100.044C69.1098 101.718 68.0258 103.217 66.6692 104.446L28.579 139.079C28.0172 139.642 27.6142 140.344 27.411 141.113C27.2078 141.882 27.2115 142.691 27.4219 143.458L32.189 161.447C32.5346 162.757 33.2555 163.938 34.2628 164.843C35.2702 165.749 36.52 166.34 37.8585 166.543L44.3265 167.528C72.173 171.79 100.505 171.79 128.352 167.528L134.82 166.543C136.158 166.34 137.408 165.749 138.415 164.843C139.423 163.938 140.143 162.757 140.489 161.447L145.256 143.458C145.467 142.691 145.47 141.882 145.267 141.113C145.064 140.344 144.661 139.642 144.099 139.079L105.94 104.446C104.583 103.217 103.499 101.718 102.757 100.044C102.016 98.3697 101.634 96.5586 101.635 94.7274V62.7578L70.9734 62.6188Z" fill="#FAFEFF"/>
<path d="M70.9734 62.6188V94.7274C70.9749 96.5586 70.5926 98.3697 69.8512 100.044C69.1098 101.718 68.0258 103.217 66.6692 104.446L28.579 139.079C28.0172 139.642 27.6142 140.344 27.411 141.113C27.2078 141.882 27.2115 142.691 27.4219 143.458L32.189 161.447C32.5346 162.757 33.2555 163.938 34.2628 164.843C35.2702 165.749 36.52 166.34 37.8585 166.543L44.3265 167.528C72.173 171.79 100.505 171.79 128.352 167.528L134.82 166.543C136.158 166.34 137.408 165.749 138.415 164.843C139.423 163.938 140.143 162.757 140.489 161.447L145.256 143.458C145.467 142.691 145.47 141.882 145.267 141.113C145.064 140.344 144.661 139.642 144.099 139.079L105.94 104.446C104.583 103.217 103.499 101.718 102.757 100.044C102.016 98.3697 101.634 96.5586 101.635 94.7274V62.7578L70.9734 62.6188Z" fill="url(#paint2_linear_0_37)" fill-opacity="0.25"/>
<path d="M70.9734 62.6188V94.7274C70.9749 96.5586 70.5926 98.3697 69.8512 100.044C69.1098 101.718 68.0258 103.217 66.6692 104.446L28.579 139.079C28.0172 139.642 27.6142 140.344 27.411 141.113C27.2078 141.882 27.2115 142.691 27.4219 143.458L32.189 161.447C32.5346 162.757 33.2555 163.938 34.2628 164.843C35.2702 165.749 36.52 166.34 37.8585 166.543L44.3265 167.528C72.173 171.79 100.505 171.79 128.352 167.528L134.82 166.543C136.158 166.34 137.408 165.749 138.415 164.843C139.423 163.938 140.143 162.757 140.489 161.447L145.256 143.458C145.467 142.691 145.47 141.882 145.267 141.113C145.064 140.344 144.661 139.642 144.099 139.079L105.94 104.446C104.583 103.217 103.499 101.718 102.757 100.044C102.016 98.3697 101.634 96.5586 101.635 94.7274V62.7578L70.9734 62.6188Z" stroke="#A0C3ED" stroke-width="2" stroke-linejoin="round"/>
<path d="M34.5263 138.06C47.2539 127.635 68.59 121.38 91.4765 135.512C85.1821 140.597 76.4348 147.894 69.9553 147.906C63.4758 147.918 43.2736 139.242 39.8719 138.639C38.1106 138.289 36.3218 138.095 34.5263 138.06Z" fill="url(#paint3_linear_0_37)"/>
<path d="M127.206 128.573C127.727 128.956 128.224 129.373 128.71 129.732L138.649 138.512C139.16 139 139.53 139.617 139.719 140.298C139.908 140.979 139.911 141.698 139.726 142.381L135.421 158.331C135.09 159.496 134.428 160.541 133.517 161.338C132.605 162.136 131.482 162.652 130.284 162.825L124.418 163.694C99.1548 167.447 73.477 167.447 48.2142 163.694L42.3479 162.825C41.1496 162.652 40.0269 162.136 39.1153 161.338C38.2037 160.541 37.5422 159.496 37.2106 158.331L32.8832 142.473C32.6506 141.795 32.629 141.062 32.8211 140.372C33.0132 139.681 33.4101 139.065 33.9593 138.604C41.4685 133.427 56.5102 146.168 70.3949 146.168C87.5424 146.168 105.338 113.006 127.206 128.573Z" fill="url(#paint4_linear_0_37)"/>
<path d="M103.66 56.9777H68.9485C67.351 56.9777 66.0559 58.2742 66.0559 59.8735C66.0559 61.4728 67.351 62.7693 68.9485 62.7693H103.66C105.258 62.7693 106.553 61.4728 106.553 59.8735C106.553 58.2742 105.258 56.9777 103.66 56.9777Z" fill="#A0C3ED" stroke="#A0C3ED" stroke-linejoin="round"/>
<defs>
<linearGradient id="paint0_linear_0_37" x1="108.276" y1="32.687" x2="126.953" y2="22.2744" gradientUnits="userSpaceOnUse">
<stop stop-color="white" stop-opacity="0.1"/>
<stop offset="1" stop-color="#4460C1"/>
</linearGradient>
<linearGradient id="paint1_linear_0_37" x1="143.789" y1="52.4151" x2="143.789" y2="105.875" gradientUnits="userSpaceOnUse">
<stop stop-color="#8BE1FF"/>
<stop offset="1" stop-color="#3787FF"/>
</linearGradient>
<linearGradient id="paint2_linear_0_37" x1="27.5265" y1="62.6188" x2="127.805" y2="62.6188" gradientUnits="userSpaceOnUse">
<stop offset="0.53125" stop-color="white" stop-opacity="0.5"/>
<stop offset="1" stop-color="#9997FF" stop-opacity="0.5"/>
</linearGradient>
<linearGradient id="paint3_linear_0_37" x1="63.0014" y1="127.292" x2="63.0014" y2="147.906" gradientUnits="userSpaceOnUse">
<stop stop-color="#8BE1FF"/>
<stop offset="1" stop-color="#3787FF"/>
</linearGradient>
<linearGradient id="paint4_linear_0_37" x1="86.277" y1="124.416" x2="86.277" y2="166.508" gradientUnits="userSpaceOnUse">
<stop stop-color="#8BE1FF"/>
<stop offset="1" stop-color="#3787FF"/>
</linearGradient>
</defs>
</svg>
