<svg width="58" height="15" viewBox="0 0 58 15" fill="none" xmlns="http://www.w3.org/2000/svg">
<path opacity="0.5" d="M7.14453 0.5C10.8143 0.5 13.7898 3.47481 13.79 7.14453C13.79 10.8145 10.8144 13.79 7.14453 13.79C3.47483 13.7898 0.5 10.8143 0.5 7.14453C0.500253 3.47494 3.47498 0.500214 7.14453 0.5Z" stroke="#57A9FF"/>
<path d="M29.0004 1.34059C32.2059 1.34077 34.8041 3.9397 34.8041 7.14528C34.8039 10.3507 32.2058 12.9488 29.0004 12.949C25.7948 12.949 23.1958 10.3508 23.1957 7.14528C23.1957 3.93958 25.7947 1.34059 29.0004 1.34059Z" fill="#57A9FF" stroke="#57A9FF"/>
<path opacity="0.5" d="M50.8547 0.5C54.5244 0.5 57.4999 3.47481 57.5002 7.14453C57.5002 10.8145 54.5246 13.79 50.8547 13.79C47.185 13.7898 44.2101 10.8143 44.2101 7.14453C44.2104 3.47494 47.1851 0.500214 50.8547 0.5Z" stroke="#57A9FF"/>
</svg>
