<svg width="68" height="13" viewBox="0 0 68 13" fill="none" xmlns="http://www.w3.org/2000/svg">
<path d="M4.25599 10.066C4.07866 10.066 3.93866 10.0147 3.83599 9.91199C3.73333 9.79999 3.68199 9.65065 3.68199 9.46399V1.09199H0.531992C0.363992 1.09199 0.233326 1.04532 0.139992 0.951986C0.0466589 0.858653 -7.81287e-06 0.73732 -7.81287e-06 0.587987C-7.81287e-06 0.42932 0.0466589 0.307987 0.139992 0.223987C0.233326 0.139986 0.363992 0.0979865 0.531992 0.0979865H7.99399C8.16199 0.0979865 8.29266 0.139986 8.38599 0.223987C8.47933 0.307987 8.52599 0.42932 8.52599 0.587987C8.52599 0.746653 8.47933 0.872653 8.38599 0.965987C8.29266 1.04999 8.16199 1.09199 7.99399 1.09199H4.84399V9.46399C4.84399 9.65065 4.79266 9.79999 4.68999 9.91199C4.59666 10.0147 4.45199 10.066 4.25599 10.066ZM11.5975 10.094C10.8788 10.094 10.2581 9.95399 9.73546 9.67399C9.22213 9.38465 8.82079 8.97865 8.53146 8.45599C8.25146 7.93332 8.11146 7.30799 8.11146 6.57999C8.11146 5.87065 8.25146 5.25465 8.53146 4.73199C8.81146 4.19999 9.19413 3.78465 9.67946 3.48599C10.1741 3.18732 10.7435 3.03799 11.3875 3.03799C11.8448 3.03799 12.2555 3.11732 12.6195 3.27599C12.9835 3.42532 13.2915 3.64465 13.5435 3.93399C13.8048 4.22332 14.0008 4.57332 14.1315 4.98399C14.2715 5.39465 14.3415 5.85665 14.3415 6.36999C14.3415 6.51932 14.2995 6.63132 14.2155 6.70599C14.1315 6.77132 14.0101 6.80399 13.8515 6.80399H8.97946V6.06199H13.5855L13.3615 6.24399C13.3615 5.73999 13.2868 5.31532 13.1375 4.96999C12.9881 4.61532 12.7688 4.34465 12.4795 4.15799C12.1995 3.97132 11.8448 3.87799 11.4155 3.87799C10.9395 3.87799 10.5335 3.98999 10.1975 4.21399C9.87079 4.42865 9.62346 4.73199 9.45546 5.12399C9.28746 5.50665 9.20346 5.95465 9.20346 6.46799V6.55199C9.20346 7.41065 9.40879 8.06399 9.81946 8.51199C10.2395 8.95999 10.8321 9.18399 11.5975 9.18399C11.9148 9.18399 12.2275 9.14199 12.5355 9.05799C12.8528 8.97399 13.1608 8.83399 13.4595 8.63799C13.5901 8.55399 13.7068 8.51665 13.8095 8.52599C13.9215 8.52599 14.0101 8.55865 14.0755 8.62399C14.1408 8.67999 14.1828 8.75465 14.2015 8.84799C14.2295 8.93199 14.2201 9.02532 14.1735 9.12799C14.1361 9.23065 14.0568 9.31932 13.9355 9.39399C13.6275 9.61799 13.2635 9.79065 12.8435 9.91199C12.4235 10.0333 12.0081 10.094 11.5975 10.094ZM21.3274 10.066C21.15 10.066 21.01 10.0147 20.9074 9.91199C20.814 9.80932 20.7674 9.66465 20.7674 9.47799V4.07399H18.0234V4.94199C18.0234 5.66999 17.986 6.31399 17.9114 6.87399C17.846 7.42465 17.7387 7.90065 17.5894 8.30199C17.44 8.70332 17.2394 9.03932 16.9874 9.30999C16.7447 9.58065 16.4414 9.80932 16.0774 9.99599C15.956 10.052 15.8394 10.066 15.7274 10.038C15.6154 10.0193 15.522 9.97732 15.4474 9.91199C15.382 9.83732 15.3354 9.74865 15.3074 9.64599C15.2887 9.54332 15.3027 9.44065 15.3494 9.33799C15.396 9.23532 15.48 9.15132 15.6014 9.08599C15.872 8.93665 16.0914 8.74999 16.2594 8.52599C16.4367 8.30199 16.5767 8.02199 16.6794 7.68599C16.782 7.34999 16.852 6.95799 16.8894 6.50999C16.936 6.05265 16.9594 5.51599 16.9594 4.89999V3.80799C16.9594 3.59332 17.0154 3.43465 17.1274 3.33199C17.2394 3.21999 17.398 3.16399 17.6034 3.16399H21.2574C21.4627 3.16399 21.6214 3.21999 21.7334 3.33199C21.8454 3.43465 21.9014 3.59332 21.9014 3.80799V9.47799C21.9014 9.66465 21.85 9.80932 21.7474 9.91199C21.654 10.0147 21.514 10.066 21.3274 10.066ZM27.2244 10.094C26.5057 10.094 25.8851 9.95399 25.3624 9.67399C24.8491 9.38465 24.4477 8.97865 24.1584 8.45599C23.8784 7.93332 23.7384 7.30799 23.7384 6.57999C23.7384 5.87065 23.8784 5.25465 24.1584 4.73199C24.4384 4.19999 24.8211 3.78465 25.3064 3.48599C25.8011 3.18732 26.3704 3.03799 27.0144 3.03799C27.4717 3.03799 27.8824 3.11732 28.2464 3.27599C28.6104 3.42532 28.9184 3.64465 29.1704 3.93399C29.4317 4.22332 29.6277 4.57332 29.7584 4.98399C29.8984 5.39465 29.9684 5.85665 29.9684 6.36999C29.9684 6.51932 29.9264 6.63132 29.8424 6.70599C29.7584 6.77132 29.6371 6.80399 29.4784 6.80399H24.6064V6.06199H29.2124L28.9884 6.24399C28.9884 5.73999 28.9137 5.31532 28.7644 4.96999C28.6151 4.61532 28.3957 4.34465 28.1064 4.15799C27.8264 3.97132 27.4717 3.87799 27.0424 3.87799C26.5664 3.87799 26.1604 3.98999 25.8244 4.21399C25.4977 4.42865 25.2504 4.73199 25.0824 5.12399C24.9144 5.50665 24.8304 5.95465 24.8304 6.46799V6.55199C24.8304 7.41065 25.0357 8.06399 25.4464 8.51199C25.8664 8.95999 26.4591 9.18399 27.2244 9.18399C27.5417 9.18399 27.8544 9.14199 28.1624 9.05799C28.4797 8.97399 28.7877 8.83399 29.0864 8.63799C29.2171 8.55399 29.3337 8.51665 29.4364 8.52599C29.5484 8.52599 29.6371 8.55865 29.7024 8.62399C29.7677 8.67999 29.8097 8.75465 29.8284 8.84799C29.8564 8.93199 29.8471 9.02532 29.8004 9.12799C29.7631 9.23065 29.6837 9.31932 29.5624 9.39399C29.2544 9.61799 28.8904 9.79065 28.4704 9.91199C28.0504 10.0333 27.6351 10.094 27.2244 10.094ZM36.1703 12.586C35.993 12.586 35.853 12.5347 35.7503 12.432C35.657 12.3293 35.6103 12.18 35.6103 11.984V8.46999H35.7363C35.6056 8.98332 35.3723 9.38465 35.0363 9.67399C34.7003 9.95399 34.285 10.094 33.7903 10.094C33.2956 10.094 32.8616 9.94932 32.4883 9.65999C32.1243 9.37065 31.8396 8.95999 31.6343 8.42799C31.429 7.89599 31.3263 7.27532 31.3263 6.56599C31.3263 5.83799 31.429 5.21265 31.6343 4.68999C31.8396 4.15799 32.1243 3.75199 32.4883 3.47199C32.8616 3.18265 33.2956 3.03799 33.7903 3.03799C34.2943 3.03799 34.7096 3.18265 35.0363 3.47199C35.3723 3.75199 35.6056 4.14865 35.7363 4.66199H35.6103V0.601987C35.6103 0.405986 35.657 0.256653 35.7503 0.153987C35.853 0.0513201 35.993 -1.3113e-05 36.1703 -1.3113e-05C36.357 -1.3113e-05 36.497 0.0513201 36.5903 0.153987C36.693 0.256653 36.7443 0.405986 36.7443 0.601987V4.66199H36.6043C36.7443 4.14865 36.9776 3.75199 37.3043 3.47199C37.6403 3.18265 38.0603 3.03799 38.5643 3.03799C39.059 3.03799 39.4883 3.18265 39.8523 3.47199C40.2256 3.75199 40.515 4.15799 40.7203 4.68999C40.9256 5.21265 41.0283 5.83799 41.0283 6.56599C41.0283 7.27532 40.9256 7.89599 40.7203 8.42799C40.515 8.95999 40.2303 9.37065 39.8663 9.65999C39.5023 9.94932 39.0683 10.094 38.5643 10.094C38.0696 10.094 37.6543 9.95399 37.3183 9.67399C36.9823 9.38465 36.7443 8.98332 36.6043 8.46999H36.7443V11.984C36.7443 12.18 36.6976 12.3293 36.6043 12.432C36.511 12.5347 36.3663 12.586 36.1703 12.586ZM34.0423 9.19799C34.3783 9.19799 34.663 9.09999 34.8963 8.90399C35.1296 8.69865 35.307 8.39999 35.4283 8.00799C35.559 7.61599 35.6243 7.13532 35.6243 6.56599C35.6243 5.70732 35.4796 5.05399 35.1903 4.60599C34.9103 4.15799 34.5276 3.93399 34.0423 3.93399C33.725 3.93399 33.445 4.03665 33.2023 4.24199C32.969 4.43799 32.787 4.73199 32.6563 5.12399C32.5256 5.51599 32.4603 5.99665 32.4603 6.56599C32.4603 7.13532 32.521 7.61599 32.6423 8.00799C32.773 8.39999 32.9596 8.69865 33.2023 8.90399C33.445 9.09999 33.725 9.19799 34.0423 9.19799ZM38.2983 9.19799C38.625 9.19799 38.905 9.09999 39.1383 8.90399C39.381 8.69865 39.5676 8.39999 39.6983 8.00799C39.829 7.61599 39.8943 7.13532 39.8943 6.56599C39.8943 5.99665 39.8243 5.51599 39.6843 5.12399C39.5536 4.73199 39.3716 4.43799 39.1383 4.24199C38.905 4.03665 38.625 3.93399 38.2983 3.93399C37.9716 3.93399 37.6916 4.03665 37.4583 4.24199C37.225 4.43799 37.043 4.73199 36.9123 5.12399C36.791 5.51599 36.7303 5.99665 36.7303 6.56599C36.7303 7.43399 36.8656 8.09199 37.1363 8.53999C37.4163 8.97865 37.8036 9.19799 38.2983 9.19799ZM45.7032 10.094C45.0405 10.094 44.4665 9.94932 43.9812 9.65999C43.4959 9.37065 43.1179 8.96465 42.8472 8.44199C42.5859 7.90999 42.4552 7.28465 42.4552 6.56599C42.4552 6.02465 42.5299 5.53932 42.6792 5.10999C42.8285 4.67132 43.0479 4.29799 43.3372 3.98999C43.6265 3.68199 43.9672 3.44865 44.3592 3.28999C44.7605 3.12199 45.2085 3.03799 45.7032 3.03799C46.3659 3.03799 46.9399 3.18265 47.4252 3.47199C47.9105 3.76132 48.2839 4.17199 48.5452 4.70399C48.8159 5.22665 48.9512 5.84732 48.9512 6.56599C48.9512 7.10732 48.8765 7.59265 48.7272 8.02199C48.5779 8.45132 48.3585 8.82465 48.0692 9.14199C47.7799 9.44999 47.4345 9.68799 47.0332 9.85599C46.6412 10.0147 46.1979 10.094 45.7032 10.094ZM45.7032 9.18399C46.1232 9.18399 46.4919 9.08132 46.8092 8.87599C47.1265 8.67065 47.3692 8.37199 47.5372 7.97999C47.7145 7.58799 47.8032 7.11665 47.8032 6.56599C47.8032 5.71665 47.6119 5.06799 47.2292 4.61999C46.8559 4.17199 46.3472 3.94799 45.7032 3.94799C45.2739 3.94799 44.9005 4.05065 44.5832 4.25599C44.2752 4.45199 44.0325 4.74599 43.8552 5.13799C43.6872 5.52065 43.6032 5.99665 43.6032 6.56599C43.6032 7.40599 43.7945 8.05465 44.1772 8.51199C44.5599 8.95999 45.0685 9.18399 45.7032 9.18399ZM51.3649 10.066C51.1782 10.066 51.0336 10.0147 50.9309 9.91199C50.8376 9.80932 50.7909 9.66465 50.7909 9.47799V3.63999C50.7909 3.44399 50.8376 3.29932 50.9309 3.20599C51.0336 3.11265 51.1782 3.06599 51.3649 3.06599C51.5422 3.06599 51.6776 3.11265 51.7709 3.20599C51.8736 3.29932 51.9249 3.44399 51.9249 3.63999V5.99199H55.6349V3.63999C55.6349 3.44399 55.6816 3.29932 55.7749 3.20599C55.8776 3.11265 56.0176 3.06599 56.1949 3.06599C56.3722 3.06599 56.5122 3.11265 56.6149 3.20599C56.7176 3.29932 56.7689 3.44399 56.7689 3.63999V9.47799C56.7689 9.66465 56.7176 9.80932 56.6149 9.91199C56.5122 10.0147 56.3722 10.066 56.1949 10.066C56.0176 10.066 55.8776 10.0147 55.7749 9.91199C55.6816 9.80932 55.6349 9.66465 55.6349 9.47799V6.91599H51.9249V9.47799C51.9249 9.66465 51.8782 9.80932 51.7849 9.91199C51.6916 10.0147 51.5516 10.066 51.3649 10.066Z" fill="#7E7E9A"/>
<path d="M63.2891 4.81599C63.1677 4.75065 63.0977 4.65732 63.0791 4.53599C63.0697 4.41465 63.1071 4.28399 63.1911 4.14399L64.1711 2.60399L64.3251 2.82799L62.4911 2.89799C62.3231 2.89799 62.1877 2.86532 62.0851 2.79999C61.9917 2.72532 61.9451 2.61799 61.9451 2.47799C61.9451 2.34732 61.9917 2.24932 62.0851 2.18399C62.1877 2.10932 62.3231 2.07665 62.4911 2.08599L64.3251 2.15599L64.1711 2.36599L63.2051 0.811986C63.1117 0.671987 63.0744 0.54132 63.0931 0.419986C63.1117 0.298653 63.1771 0.20532 63.2891 0.139987C63.4011 0.0746531 63.5131 0.0699865 63.6251 0.125987C63.7464 0.181987 63.8444 0.284653 63.9191 0.433986L64.7171 1.97399H64.5771L65.3751 0.433986C65.4591 0.284653 65.5571 0.181987 65.6691 0.125987C65.7904 0.0699865 65.9071 0.0746531 66.0191 0.139987C66.1311 0.214654 66.1917 0.312653 66.2011 0.433986C66.2197 0.55532 66.1824 0.685986 66.0891 0.825986L65.1231 2.36599L64.9691 2.15599L66.8031 2.08599C66.9711 2.07665 67.1017 2.10932 67.1951 2.18399C67.2977 2.24932 67.3491 2.34732 67.3491 2.47799C67.3491 2.61799 67.2977 2.72532 67.1951 2.79999C67.1017 2.86532 66.9711 2.89799 66.8031 2.89799L64.9691 2.82799L65.1231 2.60399L66.0891 4.14399C66.1824 4.28399 66.2197 4.41465 66.2011 4.53599C66.1917 4.64799 66.1311 4.73665 66.0191 4.80199C65.8977 4.87665 65.7764 4.88599 65.6551 4.82999C65.5431 4.77399 65.4497 4.67599 65.3751 4.53599L64.5771 2.99599H64.7171L63.9051 4.53599C63.8304 4.68532 63.7371 4.78799 63.6251 4.84399C63.5131 4.89999 63.4011 4.89065 63.2891 4.81599Z" fill="#FD3535"/>
</svg>
