<svg width="50" height="13" viewBox="0 0 50 13" fill="none" xmlns="http://www.w3.org/2000/svg">
<path d="M0.531987 10.066C0.382654 10.066 0.26132 10.0333 0.167987 9.968C0.0839868 9.89334 0.0326535 9.8 0.0139868 9.688C0.0046535 9.56667 0.0326535 9.43134 0.0979868 9.282L3.94799 0.518002C4.03199 0.331335 4.12999 0.200668 4.24199 0.126002C4.36332 0.0420022 4.49399 2.14577e-06 4.63399 2.14577e-06C4.77399 2.14577e-06 4.89999 0.0420022 5.01199 0.126002C5.13332 0.200668 5.23132 0.331335 5.30599 0.518002L9.16999 9.282C9.24465 9.43134 9.27265 9.56667 9.25399 9.688C9.24465 9.80934 9.19799 9.90267 9.11399 9.968C9.02999 10.0333 8.91332 10.066 8.76399 10.066C8.59599 10.066 8.46065 10.024 8.35799 9.94C8.25532 9.84667 8.17132 9.716 8.10599 9.548L7.06999 7.154L7.62999 7.448H1.60999L2.18399 7.154L1.16199 9.548C1.07799 9.72534 0.98932 9.856 0.895987 9.94C0.802654 10.024 0.68132 10.066 0.531987 10.066ZM4.61999 1.442L2.36599 6.748L2.02999 6.482H7.20999L6.90199 6.748L4.64799 1.442H4.61999ZM10.6049 11.886C10.4462 11.886 10.3249 11.8393 10.2409 11.746C10.1569 11.6527 10.1149 11.522 10.1149 11.354V9.618C10.1149 9.24467 10.3015 9.058 10.6749 9.058H11.3469L10.6749 9.296C10.9269 8.96 11.1275 8.596 11.2769 8.204C11.4355 7.80267 11.5522 7.35467 11.6269 6.86C11.7015 6.36534 11.7389 5.80067 11.7389 5.166V3.808C11.7389 3.59334 11.7949 3.43467 11.9069 3.332C12.0189 3.22 12.1775 3.164 12.3829 3.164H15.9109C16.1255 3.164 16.2842 3.22 16.3869 3.332C16.4989 3.43467 16.5549 3.59334 16.5549 3.808V9.576L16.0369 9.058H17.0729C17.2502 9.058 17.3855 9.10467 17.4789 9.198C17.5815 9.29134 17.6329 9.43134 17.6329 9.618V11.354C17.6329 11.7087 17.4695 11.886 17.1429 11.886C16.9842 11.886 16.8629 11.8393 16.7789 11.746C16.6949 11.6527 16.6529 11.522 16.6529 11.354V9.968H11.0809V11.354C11.0809 11.7087 10.9222 11.886 10.6049 11.886ZM11.9209 9.058H15.4769V4.06H12.7469V5.362C12.7469 6.062 12.6769 6.73867 12.5369 7.392C12.3969 8.036 12.1915 8.59134 11.9209 9.058ZM19.716 12.586C19.5294 12.586 19.3894 12.5347 19.296 12.432C19.2027 12.3387 19.156 12.1987 19.156 12.012V3.64C19.156 3.45334 19.2027 3.31334 19.296 3.22C19.3894 3.11734 19.5247 3.066 19.702 3.066C19.8887 3.066 20.0287 3.11734 20.122 3.22C20.2247 3.31334 20.276 3.45334 20.276 3.64V4.97L20.122 4.774C20.2714 4.242 20.5654 3.822 21.004 3.514C21.452 3.19667 21.984 3.038 22.6 3.038C23.2067 3.038 23.734 3.18267 24.182 3.472C24.6394 3.752 24.9894 4.158 25.232 4.69C25.484 5.21267 25.61 5.838 25.61 6.566C25.61 7.28467 25.484 7.91 25.232 8.442C24.9894 8.96467 24.644 9.37067 24.196 9.66C23.748 9.94934 23.216 10.094 22.6 10.094C21.984 10.094 21.4567 9.94 21.018 9.632C20.5794 9.31467 20.2807 8.89467 20.122 8.372H20.29V12.012C20.29 12.1987 20.2387 12.3387 20.136 12.432C20.0334 12.5347 19.8934 12.586 19.716 12.586ZM22.362 9.184C22.7914 9.184 23.16 9.08134 23.468 8.876C23.7854 8.67067 24.028 8.372 24.196 7.98C24.3734 7.588 24.462 7.11667 24.462 6.566C24.462 5.71667 24.2707 5.068 23.888 4.62C23.5147 4.172 23.006 3.948 22.362 3.948C21.942 3.948 21.5734 4.05067 21.256 4.256C20.9387 4.452 20.6914 4.746 20.514 5.138C20.346 5.52067 20.262 5.99667 20.262 6.566C20.262 7.406 20.4534 8.05467 20.836 8.512C21.2187 8.96 21.7274 9.184 22.362 9.184ZM30.5209 10.094C29.8022 10.094 29.1815 9.954 28.6589 9.674C28.1455 9.38467 27.7442 8.97867 27.4549 8.456C27.1749 7.93334 27.0349 7.308 27.0349 6.58C27.0349 5.87067 27.1749 5.25467 27.4549 4.732C27.7349 4.2 28.1175 3.78467 28.6029 3.486C29.0975 3.18734 29.6669 3.038 30.3109 3.038C30.7682 3.038 31.1789 3.11734 31.5429 3.276C31.9069 3.42534 32.2149 3.64467 32.4669 3.934C32.7282 4.22334 32.9242 4.57334 33.0549 4.984C33.1949 5.39467 33.2649 5.85667 33.2649 6.37C33.2649 6.51934 33.2229 6.63134 33.1389 6.706C33.0549 6.77134 32.9335 6.804 32.7749 6.804H27.9029V6.062H32.5089L32.2849 6.244C32.2849 5.74 32.2102 5.31534 32.0609 4.97C31.9115 4.61534 31.6922 4.34467 31.4029 4.158C31.1229 3.97134 30.7682 3.878 30.3389 3.878C29.8629 3.878 29.4569 3.99 29.1209 4.214C28.7942 4.42867 28.5469 4.732 28.3789 5.124C28.2109 5.50667 28.1269 5.95467 28.1269 6.468V6.552C28.1269 7.41067 28.3322 8.064 28.7429 8.512C29.1629 8.96 29.7555 9.184 30.5209 9.184C30.8382 9.184 31.1509 9.142 31.4589 9.058C31.7762 8.974 32.0842 8.834 32.3829 8.638C32.5135 8.554 32.6302 8.51667 32.7329 8.526C32.8449 8.526 32.9335 8.55867 32.9989 8.624C33.0642 8.68 33.1062 8.75467 33.1249 8.848C33.1529 8.932 33.1435 9.02534 33.0969 9.128C33.0595 9.23067 32.9802 9.31934 32.8589 9.394C32.5509 9.618 32.1869 9.79067 31.7669 9.912C31.3469 10.0333 30.9315 10.094 30.5209 10.094ZM37.9268 10.094C37.2454 10.094 36.6574 9.94467 36.1628 9.646C35.6681 9.34734 35.2854 8.932 35.0148 8.4C34.7534 7.85867 34.6228 7.23334 34.6228 6.524C34.6228 5.98267 34.6974 5.49734 34.8468 5.068C34.9961 4.63867 35.2154 4.27467 35.5048 3.976C35.7941 3.668 36.1394 3.43467 36.5408 3.276C36.9514 3.11734 37.4134 3.038 37.9268 3.038C38.2628 3.038 38.6128 3.08934 38.9768 3.192C39.3408 3.29467 39.6721 3.472 39.9708 3.724C40.0641 3.78934 40.1248 3.86867 40.1528 3.962C40.1808 4.05534 40.1808 4.14867 40.1528 4.242C40.1248 4.326 40.0781 4.40067 40.0128 4.466C39.9474 4.522 39.8634 4.55467 39.7608 4.564C39.6674 4.57334 39.5694 4.54067 39.4668 4.466C39.2241 4.27934 38.9768 4.14867 38.7248 4.074C38.4728 3.99934 38.2301 3.962 37.9968 3.962C37.6328 3.962 37.3154 4.02267 37.0448 4.144C36.7741 4.256 36.5454 4.41934 36.3588 4.634C36.1721 4.84867 36.0274 5.11467 35.9248 5.432C35.8314 5.74934 35.7848 6.118 35.7848 6.538C35.7848 7.35 35.9761 7.994 36.3588 8.47C36.7414 8.93667 37.2874 9.17 37.9968 9.17C38.2301 9.17 38.4681 9.13267 38.7108 9.058C38.9628 8.98334 39.2148 8.85267 39.4668 8.666C39.5694 8.59134 39.6674 8.55867 39.7608 8.568C39.8541 8.57734 39.9334 8.61467 39.9988 8.68C40.0641 8.736 40.1061 8.81067 40.1248 8.904C40.1528 8.99734 40.1528 9.09067 40.1248 9.184C40.0968 9.268 40.0361 9.34267 39.9428 9.408C39.6441 9.65067 39.3174 9.828 38.9628 9.94C38.6081 10.0427 38.2628 10.094 37.9268 10.094Z" fill="#7E7E9A"/>
<path d="M45.9273 4.816C45.806 4.75067 45.736 4.65734 45.7173 4.536C45.708 4.41467 45.7453 4.284 45.8293 4.144L46.8093 2.604L46.9633 2.828L45.1293 2.898C44.9613 2.898 44.826 2.86534 44.7233 2.8C44.63 2.72534 44.5833 2.618 44.5833 2.478C44.5833 2.34734 44.63 2.24934 44.7233 2.184C44.826 2.10934 44.9613 2.07667 45.1293 2.086L46.9633 2.156L46.8093 2.366L45.8433 0.812002C45.75 0.672002 45.7126 0.541335 45.7313 0.420002C45.75 0.298668 45.8153 0.205335 45.9273 0.140002C46.0393 0.0746684 46.1513 0.0700018 46.2633 0.126002C46.3846 0.182002 46.4826 0.284668 46.5573 0.434002L47.3553 1.974H47.2153L48.0133 0.434002C48.0973 0.284668 48.1953 0.182002 48.3073 0.126002C48.4286 0.0700018 48.5453 0.0746684 48.6573 0.140002C48.7693 0.214669 48.83 0.312669 48.8393 0.434002C48.858 0.555335 48.8206 0.686002 48.7273 0.826002L47.7613 2.366L47.6073 2.156L49.4413 2.086C49.6093 2.07667 49.74 2.10934 49.8333 2.184C49.936 2.24934 49.9873 2.34734 49.9873 2.478C49.9873 2.618 49.936 2.72534 49.8333 2.8C49.74 2.86534 49.6093 2.898 49.4413 2.898L47.6073 2.828L47.7613 2.604L48.7273 4.144C48.8206 4.284 48.858 4.41467 48.8393 4.536C48.83 4.648 48.7693 4.73667 48.6573 4.802C48.536 4.87667 48.4146 4.886 48.2933 4.83C48.1813 4.774 48.088 4.676 48.0133 4.536L47.2153 2.996H47.3553L46.5433 4.536C46.4686 4.68534 46.3753 4.788 46.2633 4.844C46.1513 4.9 46.0393 4.89067 45.9273 4.816Z" fill="#FD3535"/>
</svg>
